<?xml version="1.0" standalone="no"?>
<!DOCTYPE svg PUBLIC "-//W3C//DTD SVG 20010904//EN"
 "http://www.w3.org/TR/2001/REC-SVG-20010904/DTD/svg10.dtd">
<svg version="1.0" xmlns="http://www.w3.org/2000/svg"
 width="1280.000000pt" height="1280.000000pt" viewBox="0 0 1280.000000 1280.000000"
 preserveAspectRatio="xMidYMid meet">
<metadata>
Created by potrace 1.15, written by Peter Selinger 2001-2017
</metadata>
<g transform="translate(0.000000,1280.000000) scale(0.100000,-0.100000)"
fill="#ffc107" stroke="none">
<path d="M6095 12794 c-27 -2 -115 -8 -195 -14 -1158 -85 -2296 -503 -3249
-1194 -1410 -1020 -2339 -2557 -2585 -4276 -49 -341 -60 -508 -60 -910 0 -402
11 -569 60 -910 176 -1227 699 -2366 1518 -3305 132 -151 433 -452 594 -593
968 -850 2160 -1386 3427 -1541 308 -38 447 -46 795 -46 348 0 487 8 795 46
1993 244 3764 1427 4767 3184 456 799 722 1651 815 2610 24 253 24 857 0 1110
-81 836 -282 1553 -638 2276 -496 1007 -1245 1859 -2194 2499 -271 183 -726
428 -1045 563 -627 266 -1261 422 -1985 488 -112 10 -729 20 -820 13z m845
-569 c748 -74 1424 -266 2069 -589 1755 -879 2947 -2559 3195 -4506 57 -444
57 -1016 0 -1460 -190 -1489 -937 -2843 -2091 -3788 -864 -709 -1899 -1153
-2993 -1286 -276 -34 -395 -41 -720 -41 -325 0 -444 7 -720 41 -2051 249
-3828 1582 -4652 3489 -251 580 -400 1177 -460 1845 -28 312 -15 862 28 1200
247 1945 1440 3627 3195 4506 714 357 1479 558 2309 608 141 8 692 -4 840 -19z"/>
<path d="M4516 10676 c-47 -18 -94 -60 -112 -103 -18 -41 -21 -854 -3 -900 34
-90 153 -137 246 -98 50 21 72 42 94 90 17 37 19 74 19 453 0 444 -1 455 -53
510 -47 51 -127 71 -191 48z"/>
<path d="M2992 10029 c-85 -43 -124 -147 -87 -237 19 -44 545 -578 614 -623
107 -69 246 -10 280 119 24 90 20 96 -307 426 -194 195 -311 305 -337 317 -53
25 -110 24 -163 -2z"/>
<path d="M5990 10030 c-47 -25 -706 -688 -719 -723 -29 -76 1 -166 70 -217 51
-37 99 -46 152 -30 35 10 96 66 385 353 189 188 349 353 357 367 36 69 26 146
-28 207 -56 64 -146 82 -217 43z"/>
<path d="M4197 8956 c-70 -19 -125 -63 -161 -126 -26 -47 -31 -65 -31 -125 0
-61 11 -102 82 -315 45 -135 177 -535 293 -890 116 -355 260 -793 320 -975 60
-181 203 -619 319 -972 116 -354 305 -930 420 -1280 115 -351 222 -676 237
-722 22 -70 35 -92 78 -137 52 -53 120 -84 186 -84 51 0 131 31 170 66 27 24
156 229 406 642 202 334 379 624 392 646 l24 39 566 -566 c395 -394 580 -572
611 -587 53 -26 145 -31 206 -11 58 19 1046 1002 1081 1076 31 64 32 151 3
215 -15 34 -153 179 -587 612 -360 360 -563 571 -557 577 6 5 294 181 640 390
662 401 698 426 723 508 36 119 -6 245 -102 307 -22 14 -121 53 -220 85 -975
320 -1458 478 -1711 561 -165 54 -453 149 -640 210 -646 212 -950 312 -1035
340 -97 32 -1084 356 -1385 454 -228 74 -261 81 -328 62z"/>
<path d="M2362 8549 c-121 -60 -125 -259 -7 -326 l40 -23 542 0 c360 0 551 4
570 11 90 34 137 153 98 246 -21 50 -42 72 -90 94 -37 17 -77 19 -575 19 -525
0 -536 0 -578 -21z"/>
<path d="M3695 7695 c-5 -2 -23 -6 -40 -10 -22 -5 -121 -97 -368 -343 -186
-185 -348 -352 -359 -370 -29 -47 -28 -128 2 -176 47 -77 129 -114 209 -94 42
10 76 41 388 351 195 194 350 356 359 376 38 79 9 188 -64 235 -34 22 -104 40
-127 31z"/>
</g>
</svg>
